{
  "project_name": "first snes song",
  "tempo_map": [
    {"position_beats": 0, "bpm": 120, "time_sig_num": 4, "time_sig_den": 4}
  ],
  "regions": [],
  "tracks": [
    {
      "name": "Piano Mid",
      "midi_channel": 1,
      "notes": [
        {"pitch": 75, "velocity": 127, "start_beats": 0, "duration_beats": 0.750000},
        {"pitch": 75, "velocity": 127, "start_beats": 0.750000, "duration_beats": 0.750000},
        {"pitch": 75, "velocity": 127, "start_beats": 1.500000, "duration_beats": 0.750000},
        {"pitch": 75, "velocity": 127, "start_beats": 2.250000, "duration_beats": 0.500000},
        {"pitch": 75, "velocity": 127, "start_beats": 2.750000, "duration_beats": 0.250000},
        {"pitch": 75, "velocity": 127, "start_beats": 3, "duration_beats": 0.500000},
        {"pitch": 78, "velocity": 127, "start_beats": 3.500000, "duration_beats": 0.250000},
        {"pitch": 75, "velocity": 127, "start_beats": 3.750000, "duration_beats": 0.750000},
        {"pitch": 75, "velocity": 127, "start_beats": 4.500000, "duration_beats": 0.500000},
        {"pitch": 75, "velocity": 127, "start_beats": 5, "duration_beats": 0.250000},
        {"pitch": 75, "velocity": 127, "start_beats": 5.250000, "duration_beats": 0.500000},
        {"pitch": 75, "velocity": 127, "start_beats": 5.750000, "duration_beats": 0.500000},
        {"pitch": 75, "velocity": 127, "start_beats": 6.250000, "duration_beats": 0.500000},
        {"pitch": 75, "velocity": 127, "start_beats": 6.750000, "duration_beats": 0.250000},
        {"pitch": 75, "velocity": 127, "start_beats": 7, "duration_beats": 0.500000},
        {"pitch": 75, "velocity": 127, "start_beats": 7.500000, "duration_beats": 0.500000},
        {"pitch": 75, "velocity": 127, "start_beats": 8, "duration_beats": 0.750000},
        {"pitch": 75, "velocity": 127, "start_beats": 8.750000, "duration_beats": 0.750000},
        {"pitch": 75, "velocity": 127, "start_beats": 9.500000, "duration_beats": 0.750000},
        {"pitch": 75, "velocity": 127, "start_beats": 10.250000, "duration_beats": 0.500000},
        {"pitch": 75, "velocity": 127, "start_beats": 10.750000, "duration_beats": 0.250000},
        {"pitch": 75, "velocity": 127, "start_beats": 11, "duration_beats": 0.500000},
        {"pitch": 78, "velocity": 127, "start_beats": 11.500000, "duration_beats": 0.250000},
        {"pitch": 75, "velocity": 127, "start_beats": 11.750000, "duration_beats": 0.750000},
        {"pitch": 75, "velocity": 127, "start_beats": 12.500000, "duration_beats": 0.500000},
        {"pitch": 75, "velocity": 127, "start_beats": 13, "duration_beats": 0.250000},
        {"pitch": 75, "velocity": 127, "start_beats": 13.250000, "duration_beats": 0.500000},
        {"pitch": 75, "velocity": 127, "start_beats": 13.750000, "duration_beats": 0.250000},
        {"pitch": 75, "velocity": 127, "start_beats": 14, "duration_beats": 0.500000},
        {"pitch": 78, "velocity": 127, "start_beats": 14.500000, "duration_beats": 0.250000},
        {"pitch": 75, "velocity": 127, "start_beats": 14.750000, "duration_beats": 0.750000},
        {"pitch": 75, "velocity": 127, "start_beats": 15.500000, "duration_beats": 0.500000}
      ]
    },
    {
      "name": "Strings 2",
      "midi_channel": 2,
      "notes": [
        {"pitch": 78, "velocity": 21, "start_beats": 4, "duration_beats": 2},
        {"pitch": 82, "velocity": 21, "start_beats": 6, "duration_beats": 2},
        {"pitch": 78, "velocity": 21, "start_beats": 12, "duration_beats": 2},
        {"pitch": 82, "velocity": 21, "start_beats": 14, "duration_beats": 2}
      ]
    },
    {
      "name": "Synth Bass 1",
      "midi_channel": 3,
      "notes": [
        {"pitch": 76, "velocity": 112, "start_beats": 0, "duration_beats": 0.500000},
        {"pitch": 76, "velocity": 112, "start_beats": 0.750000, "duration_beats": 0.500000},
        {"pitch": 75, "velocity": 112, "start_beats": 1.500000, "duration_beats": 0.500000},
        {"pitch": 78, "velocity": 112, "start_beats": 2.500000, "duration_beats": 0.500000},
        {"pitch": 80, "velocity": 112, "start_beats": 3, "duration_beats": 0.500000},
        {"pitch": 85, "velocity": 112, "start_beats": 3.500000, "duration_beats": 0.500000},
        {"pitch": 83, "velocity": 112, "start_beats": 4, "duration_beats": 0.500000},
        {"pitch": 83, "velocity": 112, "start_beats": 4.750000, "duration_beats": 0.500000},
        {"pitch": 82, "velocity": 112, "start_beats": 5.500000, "duration_beats": 0.500000},
        {"pitch": 80, "velocity": 112, "start_beats": 6, "duration_beats": 0.500000},
        {"pitch": 80, "velocity": 112, "start_beats": 7, "duration_beats": 0.500000},
        {"pitch": 76, "velocity": 112, "start_beats": 8, "duration_beats": 0.500000},
        {"pitch": 76, "velocity": 112, "start_beats": 8.750000, "duration_beats": 0.500000},
        {"pitch": 75, "velocity": 112, "start_beats": 9.500000, "duration_beats": 0.500000},
        {"pitch": 85, "velocity": 112, "start_beats": 10.500000, "duration_beats": 0.500000},
        {"pitch": 82, "velocity": 112, "start_beats": 11, "duration_beats": 0.500000},
        {"pitch": 80, "velocity": 112, "start_beats": 11.500000, "duration_beats": 0.500000},
        {"pitch": 83, "velocity": 112, "start_beats": 12, "duration_beats": 0.500000},
        {"pitch": 83, "velocity": 112, "start_beats": 12.750000, "duration_beats": 0.500000},
        {"pitch": 82, "velocity": 112, "start_beats": 13.500000, "duration_beats": 0.500000},
        {"pitch": 80, "velocity": 112, "start_beats": 14, "duration_beats": 0.500000},
        {"pitch": 80, "velocity": 112, "start_beats": 15, "duration_beats": 0.500000}
      ]
    },
    {
      "name": "Harp",
      "midi_channel": 4,
      "notes": [
        {"pitch": 63, "velocity": 116, "start_beats": 0, "duration_beats": 1},
        {"pitch": 61, "velocity": 116, "start_beats": 1.500000, "duration_beats": 0.500000},
        {"pitch": 63, "velocity": 116, "start_beats": 2, "duration_beats": 0.500000},
        {"pitch": 61, "velocity": 116, "start_beats": 2.500000, "duration_beats": 0.500000},
        {"pitch": 58, "velocity": 116, "start_beats": 3, "duration_beats": 0.500000},
        {"pitch": 59, "velocity": 116, "start_beats": 4, "duration_beats": 1},
        {"pitch": 59, "velocity": 116, "start_beats": 5, "duration_beats": 1},
        {"pitch": 66, "velocity": 116, "start_beats": 6, "duration_beats": 0.250000},
        {"pitch": 66, "velocity": 116, "start_beats": 6.250000, "duration_beats": 0.250000},
        {"pitch": 66, "velocity": 116, "start_beats": 6.500000, "duration_beats": 0.250000},
        {"pitch": 66, "velocity": 116, "start_beats": 6.750000, "duration_beats": 0.250000},
        {"pitch": 66, "velocity": 116, "start_beats": 7, "duration_beats": 0.500000},
        {"pitch": 63, "velocity": 116, "start_beats": 8, "duration_beats": 1},
        {"pitch": 61, "velocity": 116, "start_beats": 9.500000, "duration_beats": 0.500000},
        {"pitch": 63, "velocity": 116, "start_beats": 10, "duration_beats": 0.500000},
        {"pitch": 64, "velocity": 116, "start_beats": 10.500000, "duration_beats": 0.500000},
        {"pitch": 68, "velocity": 116, "start_beats": 11, "duration_beats": 0.500000},
        {"pitch": 59, "velocity": 116, "start_beats": 12, "duration_beats": 1},
        {"pitch": 59, "velocity": 116, "start_beats": 13, "duration_beats": 1},
        {"pitch": 66, "velocity": 116, "start_beats": 14, "duration_beats": 0.250000},
        {"pitch": 66, "velocity": 116, "start_beats": 14.250000, "duration_beats": 0.250000},
        {"pitch": 66, "velocity": 116, "start_beats": 14.500000, "duration_beats": 0.250000},
        {"pitch": 66, "velocity": 116, "start_beats": 14.750000, "duration_beats": 0.250000},
        {"pitch": 66, "velocity": 116, "start_beats": 15, "duration_beats": 0.500000}
      ]
    },
    {
      "name": "Kick 1",
      "midi_channel": 5,
      "notes": [
        {"pitch": 62, "velocity": 127, "start_beats": 0, "duration_beats": 1},
        {"pitch": 62, "velocity": 127, "start_beats": 1, "duration_beats": 1},
        {"pitch": 62, "velocity": 127, "start_beats": 2, "duration_beats": 1},
        {"pitch": 62, "velocity": 127, "start_beats": 3, "duration_beats": 1},
        {"pitch": 62, "velocity": 127, "start_beats": 4, "duration_beats": 1},
        {"pitch": 62, "velocity": 127, "start_beats": 5, "duration_beats": 1},
        {"pitch": 62, "velocity": 127, "start_beats": 6, "duration_beats": 1},
        {"pitch": 62, "velocity": 127, "start_beats": 7, "duration_beats": 1},
        {"pitch": 62, "velocity": 127, "start_beats": 8, "duration_beats": 1},
        {"pitch": 62, "velocity": 127, "start_beats": 9, "duration_beats": 1},
        {"pitch": 62, "velocity": 127, "start_beats": 10, "duration_beats": 1},
        {"pitch": 62, "velocity": 127, "start_beats": 11, "duration_beats": 1},
        {"pitch": 62, "velocity": 127, "start_beats": 12, "duration_beats": 1},
        {"pitch": 62, "velocity": 127, "start_beats": 13, "duration_beats": 1},
        {"pitch": 62, "velocity": 127, "start_beats": 14, "duration_beats": 1},
        {"pitch": 62, "velocity": 127, "start_beats": 15, "duration_beats": 1}
      ]
    },
    {
      "name": "Snare 1",
      "midi_channel": 6,
      "notes": [
        {"pitch": 62, "velocity": 127, "start_beats": 1, "duration_beats": 0.500000},
        {"pitch": 62, "velocity": 127, "start_beats": 2.750000, "duration_beats": 0.500000},
        {"pitch": 62, "velocity": 127, "start_beats": 3.500000, "duration_beats": 0.500000},
        {"pitch": 62, "velocity": 127, "start_beats": 5, "duration_beats": 0.500000},
        {"pitch": 62, "velocity": 127, "start_beats": 7, "duration_beats": 0.500000},
        {"pitch": 62, "velocity": 127, "start_beats": 9, "duration_beats": 0.500000},
        {"pitch": 62, "velocity": 127, "start_beats": 10.750000, "duration_beats": 0.500000},
        {"pitch": 62, "velocity": 127, "start_beats": 11.500000, "duration_beats": 0.500000},
        {"pitch": 62, "velocity": 127, "start_beats": 13, "duration_beats": 0.500000},
        {"pitch": 62, "velocity": 127, "start_beats": 15, "duration_beats": 0.500000}
      ]
    }
  ]
}
